<?xml version="1.0" encoding="utf-8"?>
<!-- Generator: Adobe Illustrator 27.5.0, SVG Export Plug-In . SVG Version: 6.00 Build 0)  -->
<svg version="1.1" id="Layer_1" xmlns="http://www.w3.org/2000/svg" xmlns:xlink="http://www.w3.org/1999/xlink" x="0px" y="0px"
	 viewBox="0 0 580.949 400" style="enable-background:new 0 0 580.949 400;" xml:space="preserve">
<g style="opacity:0.21;">
	<ellipse style="fill:#C4ADAD;" cx="287.155" cy="369.84" rx="275.14" ry="7.966"/>
</g>
<g>
	<g>
		<path style="fill:#B29D9D;" d="M197.277,368.789H52.292c-4.765,0-8.627-3.863-8.627-8.628v-99.333
			c0-4.765,3.863-8.628,8.627-8.628h144.986c4.765,0,8.628,3.863,8.628,8.628v99.333
			C205.905,364.926,202.042,368.789,197.277,368.789z"/>
	</g>
	<g>
		<path style="fill:#C4ADAD;" d="M170.553,271.634H63.004c-1.5,0-2.716-1.216-2.716-2.716v-22.337
			c0-6.325,5.146-11.472,11.471-11.472h90.037c6.325,0,11.472,5.146,11.472,11.472v22.337
			C173.269,270.418,172.053,271.634,170.553,271.634z M65.72,266.202h102.117v-19.621c0-3.331-2.71-6.04-6.04-6.04H71.76
			c-3.33,0-6.04,2.709-6.04,6.04V266.202z"/>
	</g>
	<g>
		<path style="fill:#C4ADAD;" d="M189.271,368.789H44.286c-4.765,0-8.628-3.863-8.628-8.628v-99.333
			c0-4.765,3.863-8.628,8.628-8.628h144.986c4.765,0,8.628,3.863,8.628,8.628v99.333
			C197.899,364.926,194.036,368.789,189.271,368.789z"/>
	</g>
	<g>
		<path style="fill:#EFE1E1;" d="M197.899,289.033H35.658c-0.3,0-0.543-0.243-0.543-0.543s0.243-0.543,0.543-0.543h162.241
			c0.3,0,0.543,0.243,0.543,0.543S198.199,289.033,197.899,289.033z"/>
	</g>
	<g>
		<circle style="fill:#EFE1E1;" cx="116.778" cy="323.53" r="34.962"/>
	</g>
	<g>
		<g>
			<path style="fill:#FFFFFF;" d="M118.438,342.902h-3.318c-1.266,0-2.292-1.026-2.292-2.292v-34.16
				c0-1.266,1.026-2.292,2.292-2.292h3.318c1.266,0,2.292,1.026,2.292,2.292v34.16C120.73,341.876,119.703,342.902,118.438,342.902z
				"/>
		</g>
		<g>
			<path style="fill:#FFFFFF;" d="M136.151,321.871v3.318c0,1.266-1.026,2.292-2.292,2.292h-34.16c-1.266,0-2.292-1.026-2.292-2.292
				v-3.318c0-1.266,1.026-2.292,2.292-2.292h34.16C135.124,319.579,136.151,320.605,136.151,321.871z"/>
		</g>
	</g>
</g>
<g>
	<g>
		<path style="fill:#85A6D6;" d="M544.961,195.615h-80.625c-3.951,0-7.154,3.203-7.154,7.154v158.865
			c0,3.951,3.203,7.154,7.154,7.154h80.625c3.951,0,7.154-3.203,7.154-7.154V202.77
			C552.115,198.818,548.912,195.615,544.961,195.615z"/>
	</g>
	<g>
		<g>
			<path style="fill:#92B4EA;" d="M536.978,368.789h-80.625c-3.951,0-7.154-3.203-7.154-7.154V202.77
				c0-3.951,3.203-7.154,7.154-7.154h80.625c3.951,0,7.154,3.203,7.154,7.154v158.865
				C544.133,365.586,540.93,368.789,536.978,368.789z"/>
		</g>
		<g>
			<g>
				<g>
					<circle style="fill:#C5DBF9;" cx="476.663" cy="345.693" r="16.048"/>
				</g>
				<g>
					<path style="fill:#92B4EA;" d="M469.492,360.78c-0.107,0-0.214-0.022-0.316-0.071c-0.372-0.176-0.531-0.619-0.355-0.99
						l13.693-28.999c0.176-0.372,0.618-0.533,0.99-0.355c0.372,0.176,0.531,0.619,0.355,0.99l-13.693,28.999
						C470.039,360.623,469.771,360.78,469.492,360.78z"/>
				</g>
			</g>
			<g>
				<g>
					<circle style="fill:#C5DBF9;" cx="516.669" cy="345.693" r="16.048"/>
				</g>
				<g>
					<path style="fill:#92B4EA;" d="M509.499,360.78c-0.106,0-0.214-0.022-0.316-0.071c-0.372-0.176-0.531-0.619-0.355-0.99
						l13.692-28.999c0.175-0.372,0.618-0.533,0.99-0.355c0.372,0.176,0.531,0.619,0.355,0.99l-13.692,28.999
						C510.046,360.623,509.778,360.78,509.499,360.78z"/>
				</g>
			</g>
		</g>
		<g>
			<g>
				<g>
					
						<ellipse transform="matrix(0.2282 -0.9736 0.9736 0.2282 72.9034 697.9368)" style="fill:#C5DBF9;" cx="476.663" cy="302.986" rx="16.048" ry="16.048"/>
				</g>
				<g>
					<path style="fill:#92B4EA;" d="M469.492,318.073c-0.107,0-0.214-0.022-0.316-0.071c-0.372-0.176-0.531-0.619-0.355-0.99
						l13.693-29c0.176-0.372,0.618-0.533,0.99-0.355c0.372,0.176,0.531,0.619,0.355,0.99l-13.693,29
						C470.039,317.916,469.771,318.073,469.492,318.073z"/>
				</g>
			</g>
			<g>
				<g>
					
						<ellipse transform="matrix(0.1594 -0.9872 0.9872 0.1594 135.2069 764.7587)" style="fill:#C5DBF9;" cx="516.669" cy="302.986" rx="16.048" ry="16.048"/>
				</g>
				<g>
					<path style="fill:#92B4EA;" d="M509.499,318.073c-0.106,0-0.214-0.022-0.316-0.071c-0.372-0.176-0.531-0.619-0.355-0.99
						l13.692-29c0.175-0.372,0.618-0.533,0.99-0.355c0.372,0.176,0.531,0.619,0.355,0.99l-13.692,29
						C510.046,317.916,509.778,318.073,509.499,318.073z"/>
				</g>
			</g>
		</g>
		<g>
			<g>
				<g>
					
						<ellipse transform="matrix(0.7071 -0.7071 0.7071 0.7071 -44.4335 413.2853)" style="fill:#C5DBF9;" cx="476.663" cy="260.279" rx="16.048" ry="16.048"/>
				</g>
				<g>
					<path style="fill:#92B4EA;" d="M469.492,275.365c-0.107,0-0.214-0.022-0.316-0.071c-0.372-0.176-0.531-0.619-0.355-0.99
						l13.693-28.999c0.176-0.372,0.618-0.532,0.99-0.355c0.372,0.176,0.531,0.619,0.355,0.99l-13.693,28.999
						C470.039,275.208,469.771,275.365,469.492,275.365z"/>
				</g>
			</g>
			<g>
				<g>
					
						<ellipse transform="matrix(0.9254 -0.379 0.379 0.9254 -60.0987 215.2137)" style="fill:#C5DBF9;" cx="516.669" cy="260.279" rx="16.048" ry="16.048"/>
				</g>
				<g>
					<path style="fill:#92B4EA;" d="M509.499,275.365c-0.106,0-0.214-0.022-0.316-0.071c-0.372-0.176-0.531-0.619-0.355-0.99
						l13.692-28.999c0.175-0.372,0.618-0.532,0.99-0.355c0.372,0.176,0.531,0.619,0.355,0.99l-13.692,28.999
						C510.046,275.208,509.778,275.365,509.499,275.365z"/>
				</g>
			</g>
		</g>
		<g>
			<g>
				<g>
					
						<ellipse transform="matrix(0.7071 -0.7071 0.7071 0.7071 -14.2348 400.7766)" style="fill:#C5DBF9;" cx="476.663" cy="217.571" rx="16.048" ry="16.048"/>
				</g>
				<g>
					<path style="fill:#92B4EA;" d="M469.492,232.658c-0.107,0-0.214-0.023-0.316-0.071c-0.372-0.176-0.531-0.619-0.355-0.99
						l13.693-29c0.176-0.372,0.618-0.533,0.99-0.355c0.372,0.176,0.531,0.619,0.355,0.99l-13.693,29
						C470.039,232.501,469.771,232.658,469.492,232.658z"/>
				</g>
			</g>
			<g>
				<g>
					
						<ellipse transform="matrix(0.9254 -0.379 0.379 0.9254 -43.914 212.0282)" style="fill:#C5DBF9;" cx="516.669" cy="217.571" rx="16.048" ry="16.048"/>
				</g>
				<g>
					<path style="fill:#92B4EA;" d="M509.499,232.658c-0.106,0-0.214-0.023-0.316-0.071c-0.372-0.176-0.531-0.619-0.355-0.99
						l13.692-29c0.175-0.372,0.618-0.533,0.99-0.355c0.372,0.176,0.531,0.619,0.355,0.99l-13.692,29
						C510.046,232.501,509.778,232.658,509.499,232.658z"/>
				</g>
			</g>
		</g>
	</g>
</g>
<g>
	<g>
		<path style="fill:#F48462;" d="M202.454,139.788c0,0-9.385,21.157-14.718,19.806c-5.333-1.35-7.134-8.149-7.134-8.149
			s-6.865-11.772-0.178-15.047C187.851,132.761,202.454,139.788,202.454,139.788z"/>
	</g>
	<g>
		<polygon style="fill:#F48462;" points="146.353,333.047 156.913,351.142 181.264,343.417 168.791,322.819 		"/>
	</g>
	<g>
		<polygon style="fill:#F48462;" points="100.2,352.366 100.866,332.503 124.501,331.322 124.501,353.547 		"/>
	</g>
	<g>
		<path style="fill:#F48462;" d="M50.71,140.702c0,0,10.632,26.586,25.96,35.092c12.541,6.96,26.569,4.102,26.569,4.102
			l-2.398-25.136l-13.828-3.441c-2.577-1.106-10.035-6.196-12.136-8.053l-10.32-11.572L50.71,140.702z"/>
	</g>
	<g>
		<g>
			<path style="fill:#FFB164;" d="M136.365,208.761l-1.092,56.099c0,0-0.591,27.826-1.612,50.763
				c-0.34,7.986-1.757,21.414-2.205,26.839H96.197c-0.143-24.048-1.732-94.738-0.693-106.252c1.253-14.164,3.76-27.701,3.76-27.701
				l32.553,0.215L136.365,208.761z"/>
		</g>
	</g>
	<g>
		<g>
			<path style="fill:#FFB164;" d="M147.414,343.268c-4.172-7.001-13.896-28.428-17.75-37.326
				c-1.723-3.977,2.153-97.217,2.153-97.217v-0.215l11.245-2.937c0,0,31.993,97.708,39.674,125.749L147.414,343.268z"/>
		</g>
	</g>
	<g>
		<path style="fill:#FFFFFF;" d="M102.312,224.203c-0.597,0-1.214-0.068-1.853-0.22c-0.173-0.041-0.28-0.214-0.239-0.387
			c0.041-0.172,0.214-0.277,0.386-0.238c6.997,1.645,11.453-7.397,11.497-7.489c0.077-0.159,0.271-0.225,0.429-0.149
			c0.16,0.077,0.227,0.269,0.15,0.429C112.639,216.236,108.721,224.203,102.312,224.203z"/>
	</g>
	<g>
		<path style="fill:#FFFFFF;" d="M133.518,315.161c-0.174,0-0.317-0.14-0.321-0.314l-1.696-84.499
			c-0.002-0.11,0.052-0.214,0.145-0.275l9.782-6.457c0.147-0.099,0.346-0.058,0.445,0.091c0.098,0.148,0.057,0.347-0.091,0.444
			l-9.634,6.36l1.693,84.321c0.003,0.178-0.138,0.324-0.315,0.328C133.522,315.161,133.52,315.161,133.518,315.161z"/>
	</g>
	<g>
		<path style="fill:#5C69A5;" d="M124.859,152.227c0,0,9.438,0.396,13.18,7.386c3.741,6.99,6.57,48.654,6.57,48.654
			s-10.464,4.276-25.735,4.091c-15.271-0.184-20.436-3.843-20.436-3.843l-2.938-25.693c0,0,0.465-27.874,4.272-29.773
			C103.579,151.149,118.539,150.724,124.859,152.227z"/>
	</g>
	<g>
		<g>
			<path style="fill:#F48462;" d="M65.056,130.617c0,0-1.495-6.631-5.038-9.652c-3.543-3.021-7.734-4.968-7.001-2.279
				c0.733,2.688,3.186,7.081,3.186,7.081l-6.427-1.711c0,0-4.191-1.947-7.236-2.758c-3.045-0.811-4.003,1.427-4.003,1.427
				s-3.044-0.811-4.369,0.083c-1.325,0.894-0.385,2.806-0.385,2.806s-4.369,0.083-2.725,3.43c1.645,3.346,10.29,8.973,14.482,10.92
				c4.191,1.947,13.635,3.215,13.635,3.215S67.656,145.034,65.056,130.617z"/>
		</g>
	</g>
	<g>
		<path d="M41.552,132.032c-0.115,0-0.226-0.061-0.284-0.169c-0.083-0.156-0.025-0.351,0.131-0.435l11.149-5.979
			c0.158-0.083,0.352-0.024,0.435,0.131c0.084,0.156,0.025,0.351-0.131,0.435l-11.149,5.979
			C41.655,132.02,41.603,132.032,41.552,132.032z"/>
	</g>
	<g>
		<path d="M60.294,134.788c-0.04,0-0.08-0.007-0.12-0.023c-5.765-2.311-4.034-8.068-4.016-8.126c0.054-0.17,0.237-0.265,0.402-0.21
			c0.169,0.053,0.264,0.233,0.211,0.402c-0.066,0.213-1.566,5.251,3.642,7.339c0.164,0.066,0.245,0.253,0.178,0.417
			C60.542,134.712,60.421,134.788,60.294,134.788z"/>
	</g>
	<g>
		<path style="fill:#5C69A5;" d="M50.71,143.89c0,0,7.543,21.49,21.381,30.445c10.914,7.064,26.063,7.506,26.063,7.506
			l12.081-30.434c0,0-21.631-0.645-27.599-5.074c-5.969-4.428-15.519-14.095-15.519-14.095L50.71,143.89z"/>
	</g>
	<g>
		<path style="fill:#F7B369;" d="M81.839,156.407c-0.515,0-0.773-0.262-0.899-0.482c-0.952-1.657,2.417-7.606,3.102-8.782
			c0.072-0.124,0.219-0.184,0.356-0.15c0.139,0.036,0.237,0.159,0.242,0.302c0.008,0.274,0.184,6.724-1.613,8.577
			C82.682,156.227,82.283,156.407,81.839,156.407z M83.999,148.53c-1.422,2.617-3.021,6.173-2.502,7.076
			c0.045,0.079,0.121,0.159,0.342,0.159c0.267,0,0.504-0.111,0.727-0.34C83.74,154.213,83.964,150.481,83.999,148.53z"/>
	</g>
	<g>
		<path style="fill:#5C69A5;" d="M128.995,152.969c0,0,14.023,5.265,26.341,4.671c12.318-0.594,22.745-11.306,22.745-11.306
			l12.891,14.371c0,0-8.294,22.941-27.91,27.607c-19.615,4.665-35.215-7.835-35.215-7.835L128.995,152.969z"/>
	</g>
	<g>
		<path style="fill:#F7B369;" d="M161.007,164.093c-0.443,0-0.847-0.139-1.205-0.417c-1.783-1.381-1.742-5.851-1.739-6.04
			c0.002-0.123,0.073-0.233,0.184-0.286c0.11-0.051,0.241-0.037,0.337,0.04c0.471,0.376,4.593,3.724,4.209,5.584
			c-0.071,0.347-0.327,0.807-1.139,1.029C161.431,164.063,161.214,164.093,161.007,164.093z M158.722,158.335
			c0.058,1.273,0.319,3.938,1.474,4.833c0.363,0.28,0.785,0.35,1.29,0.213c0.602-0.164,0.66-0.446,0.679-0.538
			C162.371,161.845,160.341,159.719,158.722,158.335z"/>
	</g>
	<g>
		<path style="fill:#F7B369;" d="M142.849,188.077c-0.158,0-0.295-0.116-0.317-0.277l-2.02-14.514
			c-0.025-0.176,0.098-0.338,0.273-0.362c0.18-0.029,0.338,0.098,0.362,0.273l2.02,14.514c0.025,0.176-0.098,0.338-0.273,0.362
			C142.878,188.076,142.863,188.077,142.849,188.077z"/>
	</g>
	<g>
		<g>
			<g>
				<g>
					<path style="fill:#68B6D8;" d="M129.663,369.276c0,1.978-0.765,4.24-2.33,4.81c-1.566,0.569-14.236,1.756-25.323,0.918
						c-10.614-0.807-12.816-1.487-13.599-2.326c-0.382-0.427,0.364-2.405,1.22-4.319c0.054-0.095,0.091-0.206,0.146-0.301
						c0.437-0.965,0.892-1.898,1.22-2.563c0.328-0.633,0.728-1.234,1.201-1.819c1.147-1.376,3.423-4.224,4.005-5.695
						c0.765-1.962,1.93-6.202,2.713-8.195c0.783-1.962,2.694-2.373,2.694-2.373s7.376-5.631,23.394-0.158
						c1.895,0.647,2.33,10.457,2.33,11.866v1.408c0,1.313,1.038,3.908,1.711,6.059c0.182,0.538,0.328,1.044,0.437,1.503
						C129.591,368.549,129.663,368.944,129.663,369.276z"/>
				</g>
			</g>
		</g>
	</g>
	<g>
		<g>
			<path style="fill:#68B6D8;" d="M216.722,371.74c0.559-0.081,0.931-0.654,0.828-1.257c-0.487-2.854-2.202-10.825-6.592-14.183
				c-5.396-4.126-16.652-5.714-20.76-8.461c-4.108-2.747-8.73-9.417-11.162-8.131c-2.431,1.286-6.991,7.147-13.641,6.361
				c-6.65-0.786-11.506-0.753-13.284,0.925c-1.777,1.678-0.86,23.324-0.083,24.707c0.776,1.383,10.127,0.035,10.943,0.254
				s3.078-5.349,4.617-4.527c1.539,0.822,3.428,3.413,5.695,4.594C175.398,373.124,210.028,372.716,216.722,371.74z"/>
		</g>
	</g>
	<g>
		<path style="fill:#5C69A5;" d="M187.886,351.122c-0.045,0-0.092-0.01-0.135-0.03c-0.155-0.072-0.227-0.253-0.163-0.411
			c0.071-0.177,0.789-1.928,1.907-3.89c1.752-3.813,3.638-8.653,2.945-10.191c-0.096-0.213-0.235-0.335-0.438-0.384
			c-0.39-0.097-0.745-0.02-1.084,0.232c-2.23,1.651-2.707,9.531-2.711,9.61c-0.011,0.177-0.169,0.321-0.339,0.302
			c-0.177-0.01-0.312-0.162-0.302-0.339c0.02-0.336,0.501-8.262,2.971-10.09c0.496-0.367,1.041-0.479,1.618-0.341
			c0.394,0.097,0.696,0.354,0.872,0.745c0.607,1.348-0.309,4.432-1.509,7.43c1.456-1.804,3.182-3.12,4.938-2.617
			c0.896,0.257,1.191,0.793,1.281,1.198c0.579,2.616-5.617,8.082-6.326,8.696c-0.132,0.117-0.337,0.102-0.453-0.031
			c-0.116-0.135-0.102-0.337,0.032-0.453c1.845-1.602,6.54-6.172,6.12-8.072c-0.077-0.347-0.349-0.583-0.831-0.721
			c-2.248-0.643-4.591,2.486-6.173,5.26c-0.907,1.962-1.715,3.51-1.934,3.926C188.113,351.06,188.001,351.122,187.886,351.122z"/>
	</g>
	<g>
		<path style="fill:#5C69A5;" d="M108.986,360.399c-0.039,0-0.079-0.007-0.117-0.022c-0.563-0.221-5.51-2.213-6.088-4.181
			c-0.121-0.41-0.052-0.811,0.197-1.156c0.259-0.359,0.633-0.574,1.111-0.639c1.313-0.18,3.243,0.866,4.632,1.772
			c-1.535-2.145-3.795-5.69-3.191-7.234c0.118-0.301,0.397-0.68,1.06-0.782c3.486-0.53,5.858,9.638,6.115,10.801
			c0.038,0.173-0.071,0.345-0.244,0.383c-0.172,0.034-0.344-0.07-0.383-0.244c-0.664-2.994-2.928-10.67-5.391-10.305
			c-0.392,0.061-0.507,0.247-0.56,0.382c-0.602,1.539,2.942,6.498,4.358,8.279c0.102,0.128,0.091,0.313-0.025,0.428
			c-0.117,0.117-0.3,0.126-0.428,0.022c-1.085-0.87-4.252-3.074-5.858-2.866c-0.301,0.041-0.522,0.165-0.677,0.379
			c-0.134,0.187-0.167,0.377-0.101,0.6c0.414,1.411,4.26,3.195,5.706,3.764c0.165,0.065,0.247,0.251,0.182,0.416
			C109.235,360.322,109.114,360.399,108.986,360.399z"/>
	</g>
	<g>
		<path d="M124.276,131.558c0,0,5.795-8.289,2.915-11.216c-2.88-2.927-6.777,0.474-6.777,0.474s-0.485-3.667-4.563-3
			c-4.078,0.667-6.245,5.214-6.245,5.214s-3.864-3.36-6.083,0.426c-2.22,3.786-0.096,9.561-0.096,9.561s-2.882-0.223-1.887,3.073
			c0.995,3.296,5.723,6.434,5.723,6.434L124.276,131.558z"/>
	</g>
	<g>
		<g>
			<path style="fill:#F48462;" d="M111.255,144.882l0.5,8.856c0,0,2.186,1.758,7.391,1.887c3.877,0.096,4.444-1.812,4.444-1.812
				l-0.497-2.798l-0.777-4.344l-9.471-1.53L111.255,144.882z"/>
		</g>
	</g>
	<g>
		<g>
			<path d="M112.844,145.141c0.036,0.24,0.144,0.521,0.306,0.84c2.231,4.312,7.702,4.96,9.943,5.034l-0.777-4.344L112.844,145.141z"
				/>
		</g>
	</g>
	<g>
		<g>
			<path style="fill:#F48462;" d="M123.151,126.373c0,0,5.274,10.841,3.79,17.114c-1.484,6.272-7.174,5.527-10.604,4.467
				c-3.43-1.061-5.084-3.07-5.084-3.07s-3.114,1.2-5.346-1.65s-1.07-6.275,0.702-7.122c1.771-0.846,3.969,0.368,3.969,0.368
				l-1.812-3.139C108.767,133.34,115.171,116.748,123.151,126.373z"/>
		</g>
	</g>
	<g>
		<path d="M110.501,141.248c-0.059,0-0.119-0.016-0.172-0.05l-4.152-2.645c-0.15-0.095-0.194-0.294-0.099-0.443
			c0.096-0.15,0.294-0.195,0.443-0.099l4.152,2.645c0.15,0.095,0.194,0.294,0.099,0.443
			C110.711,141.195,110.607,141.248,110.501,141.248z"/>
	</g>
	<g>
		<path d="M106.862,141.404c-0.136,0-0.263-0.087-0.306-0.224c-0.054-0.17,0.04-0.35,0.209-0.404l2.589-0.825
			c0.17-0.054,0.35,0.039,0.404,0.208c0.054,0.169-0.039,0.35-0.208,0.404l-2.589,0.825
			C106.927,141.399,106.894,141.404,106.862,141.404z"/>
	</g>
	<g>
		<path d="M116.239,131.884c-0.028,0-0.058-0.004-0.087-0.012c-0.171-0.047-0.271-0.225-0.223-0.395
			c0.524-1.874,2.099-2.202,2.858-2.124c0.176,0.02,0.302,0.178,0.283,0.354c-0.019,0.175-0.182,0.297-0.353,0.285
			c-0.069-0.007-1.666-0.15-2.171,1.658C116.509,131.791,116.38,131.884,116.239,131.884z"/>
	</g>
	<g>
		<path d="M124.543,130.53c-0.066,0-0.132-0.021-0.19-0.063c-0.692-0.509-0.981-0.588-1.062-0.6
			c-0.105,0.049-0.233,0.039-0.331-0.036c-0.141-0.108-0.167-0.309-0.06-0.45c0.381-0.498,1.474,0.305,1.833,0.569
			c0.143,0.105,0.173,0.306,0.068,0.449C124.739,130.485,124.642,130.53,124.543,130.53z"/>
	</g>
	<g>
		<path d="M123.527,139.04c-0.061,0-0.122-0.017-0.176-0.053c-0.148-0.097-0.189-0.296-0.092-0.444
			c0.802-1.22-0.94-3.264-1.678-3.949c-0.13-0.121-0.138-0.324-0.017-0.454c0.119-0.131,0.322-0.138,0.454-0.018
			c0.125,0.116,3.043,2.851,1.778,4.773C123.734,138.989,123.631,139.04,123.527,139.04z"/>
	</g>
	<g>
		<path d="M124.744,134.788c-0.134,0-0.26-0.085-0.305-0.219l-0.669-2c-0.056-0.168,0.035-0.35,0.203-0.407
			c0.168-0.057,0.35,0.034,0.407,0.203l0.669,2c0.056,0.168-0.035,0.35-0.203,0.407
			C124.812,134.782,124.777,134.788,124.744,134.788z"/>
	</g>
	<g>
		<path d="M119.146,135.213c-0.134,0-0.26-0.085-0.305-0.219l-0.669-1.999c-0.056-0.168,0.035-0.35,0.203-0.407
			c0.17-0.057,0.351,0.034,0.407,0.203l0.669,1.999c0.056,0.169-0.035,0.35-0.203,0.407
			C119.213,135.208,119.179,135.213,119.146,135.213z"/>
	</g>
	<g>
		<path d="M124.225,128.823c0,0-1.062-1.726-3.272-1.617c-2.21,0.11-3.412,1.738-3.412,1.738s1.179,3.665-1.713,5.811
			c-2.893,2.146-5.248,1.724-5.248,1.724l-2.223-0.654l-1.778-3.094l5.92-7.149l7.916-4.767l4.371,3.54L124.225,128.823z"/>
	</g>
	<g>
		<path d="M121.202,142.707c-0.692,0-2.164-0.187-2.962-1.666c-0.084-0.156-0.026-0.351,0.13-0.435
			c0.155-0.083,0.351-0.025,0.435,0.13c0.844,1.564,2.605,1.324,2.678,1.314c0.173-0.027,0.338,0.094,0.365,0.27
			c0.026,0.175-0.093,0.338-0.268,0.365C121.574,142.686,121.431,142.707,121.202,142.707z"/>
	</g>
	<g>
		<path style="fill:#F7B369;" d="M111.489,160.264c-0.452,0-0.854-0.106-1.18-0.351c-0.47-0.351-0.747-0.835-0.825-1.436
			c-0.263-2.042,1.926-4.822,2.019-4.939c0.096-0.122,0.265-0.156,0.401-0.085c0.072,0.038,7.252,3.753,11.476,0.116
			c0.098-0.084,0.236-0.102,0.35-0.045c0.669,0.326,3.999,2.022,3.901,3.396c-0.033,0.462-0.394,0.807-1.073,1.025
			c-2.765,0.895-6.468-1.324-7.388-1.918C118.125,156.917,114.027,160.264,111.489,160.264z M111.85,154.145
			c-0.485,0.662-1.92,2.767-1.729,4.251c0.055,0.428,0.243,0.756,0.572,1.003c1.465,1.098,5.665-1.885,7.716-3.572
			C115.443,155.776,112.684,154.55,111.85,154.145z M119.934,155.741c1.266,0.75,4.258,2.29,6.428,1.593
			c0.228-0.073,0.613-0.231,0.629-0.46c0.047-0.66-1.911-1.948-3.356-2.681C122.511,155.103,121.23,155.564,119.934,155.741z"/>
	</g>
	<g>
		<path d="M184.516,152.017c-0.116,0-0.227-0.063-0.285-0.172c-0.083-0.157-0.023-0.351,0.135-0.434
			c2.564-1.349,3.482-6.531,3.491-6.583c0.03-0.175,0.2-0.291,0.371-0.262c0.175,0.03,0.292,0.196,0.262,0.371
			c-0.039,0.226-0.98,5.546-3.825,7.043C184.617,152.004,184.566,152.017,184.516,152.017z"/>
	</g>
</g>
<g>
	<path style="fill:#D3BCBC;" d="M374.626,301.108h-168.12c-4.999,0-9.052-4.053-9.052-9.052V65.109c0-4.999,4.053-9.052,9.052-9.052
		h168.12c5,0,9.052,4.053,9.052,9.052v226.947C383.679,297.056,379.626,301.108,374.626,301.108z"/>
</g>
<g>
	<path style="fill:#EAD8D8;" d="M365.664,301.108h-168.12c-5,0-9.052-4.053-9.052-9.052V65.109c0-4.999,4.053-9.052,9.052-9.052
		h168.12c4.999,0,9.052,4.053,9.052,9.052v226.947C374.716,297.056,370.663,301.108,365.664,301.108z"/>
</g>
<g>
	<path style="fill:#F48462;" d="M179.419,141.179c0,0-0.56-3.664,1.005-4.943c1.564-1.279,12.567-6.578,14.664-3.639
		c1.05,1.471-6.915,6.871-6.915,6.871s0.121,3.005-1.185,6.939c-1.306,3.934-4.252,1.82-4.252,1.82L179.419,141.179z"/>
</g>
<g>
	<g>
		<circle style="fill:#85A6D6;" cx="194.625" cy="58.896" r="31.563"/>
	</g>
	<g>
		<circle style="fill:#92B4EA;" cx="190.972" cy="58.896" r="31.563"/>
	</g>
	<g>
		<g>
			<path style="fill:#FFFFFF;" d="M192.631,78.268h-3.318c-1.266,0-2.292-1.026-2.292-2.292v-34.16c0-1.266,1.026-2.292,2.292-2.292
				h3.318c1.266,0,2.292,1.026,2.292,2.292v34.16C194.923,77.242,193.897,78.268,192.631,78.268z"/>
		</g>
		<g>
			<path style="fill:#FFFFFF;" d="M210.344,57.237v3.318c0,1.266-1.026,2.292-2.292,2.292h-34.16c-1.266,0-2.292-1.026-2.292-2.292
				v-3.318c0-1.266,1.026-2.292,2.292-2.292h34.16C209.318,54.945,210.344,55.971,210.344,57.237z"/>
		</g>
	</g>
</g>
<g>
	<path style="fill:#5C69A5;" d="M309.154,80.984h-57.059c-6.065,0-10.999-4.934-10.999-10.999V57.143c0-0.9,0.729-1.629,1.629-1.629
		c0.9,0,1.629,0.729,1.629,1.629v12.842c0,4.268,3.472,7.74,7.74,7.74h57.059c4.268,0,7.739-3.472,7.739-7.74V57.143
		c0-0.9,0.73-1.629,1.63-1.629c0.899,0,1.63,0.729,1.63,1.629v12.842C320.153,76.05,315.219,80.984,309.154,80.984z"/>
</g>
<g>
	<g>
		<path style="fill:#FFFFFF;" d="M310.057,112.405c0,2.121,0.277,4.181,0.799,6.139c1.219,4.596,3.771,8.65,7.225,11.714
			c0.225,0.205,0.461,0.405,0.697,0.6c0.861,0.717,1.778,1.368,2.741,1.952c0.42,0.256,0.845,0.502,1.281,0.733
			c0.123,0.067,0.246,0.128,0.374,0.19c3.233,1.64,6.897,2.562,10.771,2.562c1.322,0,2.618-0.108,3.884-0.318
			c0.907-0.143,1.794-0.343,2.665-0.589c2.885-0.82,5.544-2.167,7.871-3.93c0.559-0.425,1.097-0.876,1.619-1.348
			c0.876-0.789,1.696-1.65,2.444-2.562c0.256-0.313,0.507-0.635,0.743-0.963c2.931-3.966,4.663-8.87,4.663-14.179
			c0-13.195-10.694-23.889-23.889-23.889C320.751,88.516,310.057,99.21,310.057,112.405z"/>
	</g>
	<g>
		<path d="M328.857,105.3c0,0-4.059-4.704-2.481-6.672c1.577-1.968,4.171-0.133,4.171-0.133s0.067-2.271,2.601-2.118
			c2.533,0.153,4.142,2.797,4.142,2.797s2.151-2.295,3.744-0.119c1.593,2.175,0.655,5.837,0.655,5.837s1.747-0.316,1.345,1.76
			c-0.402,2.076-3.096,4.289-3.096,4.289L328.857,105.3z"/>
	</g>
	<g>
		<g>
			<path style="fill:#F48462;" d="M337.646,112.63l0.247,5.443c0,0-1.226,1.211-4.399,1.615c-2.363,0.301-2.829-0.83-2.829-0.83
				l0.129-1.741l0.204-2.703l5.692-1.526L337.646,112.63z"/>
		</g>
	</g>
	<g>
		<g>
			<path d="M336.691,112.887c-0.007,0.149-0.056,0.327-0.134,0.532c-1.094,2.774-4.397,3.512-5.762,3.697l0.204-2.703
				L336.691,112.887z"/>
		</g>
	</g>
	<g>
		<g>
			<path style="fill:#F48462;" d="M329.221,102.062c0,0-2.547,6.954-1.248,10.695c1.298,3.741,4.729,2.93,6.759,2.068
				c2.03-0.862,2.915-2.193,2.915-2.193s1.978,0.539,3.164-1.342c1.186-1.881,0.262-3.902-0.873-4.308s-2.402,0.472-2.402,0.472
				l0.911-2.031C338.446,105.422,333.497,95.682,329.221,102.062z"/>
		</g>
	</g>
	<g>
		<path d="M337.859,110.363c-0.059,0-0.116-0.026-0.154-0.075c-0.068-0.086-0.054-0.21,0.032-0.277l2.372-1.874
			c0.086-0.068,0.21-0.052,0.277,0.032c0.067,0.086,0.053,0.21-0.033,0.277l-2.372,1.874
			C337.945,110.349,337.902,110.363,337.859,110.363z"/>
	</g>
	<g>
		<path d="M340.094,110.231c-0.04-0.004-1.674-0.347-1.674-0.347c-0.107-0.022-0.176-0.127-0.153-0.233
			c0.022-0.107,0.128-0.176,0.233-0.152l1.634,0.342c0.107,0.022,0.176,0.127,0.153,0.233
			C340.268,110.167,340.185,110.231,340.094,110.231z"/>
	</g>
	<g>
		<path d="M333.769,104.998c-0.079,0-0.153-0.047-0.184-0.125c-0.425-1.081-1.388-0.886-1.428-0.878
			c-0.111,0.021-0.212-0.045-0.234-0.151c-0.023-0.106,0.044-0.211,0.15-0.234c0.456-0.099,1.441,0.007,1.879,1.119
			c0.04,0.102-0.01,0.216-0.111,0.256C333.817,104.994,333.793,104.998,333.769,104.998z"/>
	</g>
	<g>
		<path d="M328.609,104.69c-0.054,0-0.107-0.022-0.147-0.065c-0.073-0.081-0.066-0.206,0.015-0.279
			c0.203-0.184,0.825-0.739,1.084-0.461c0.075,0.08,0.071,0.204-0.009,0.279c-0.055,0.051-0.131,0.066-0.199,0.043
			c-0.049,0.012-0.221,0.079-0.612,0.433C328.704,104.673,328.656,104.69,328.609,104.69z"/>
	</g>
	<g>
		<path d="M329.762,109.827c-0.058,0-0.114-0.025-0.153-0.073c-0.892-1.096,0.721-2.95,0.789-3.028
			c0.071-0.081,0.197-0.09,0.278-0.018c0.082,0.072,0.09,0.197,0.019,0.278c-0.409,0.464-1.346,1.823-0.779,2.518
			c0.068,0.085,0.056,0.209-0.028,0.277C329.85,109.812,329.806,109.827,329.762,109.827z"/>
	</g>
	<g>
		<path d="M328.753,107.304c-0.149-0.029-0.217-0.134-0.192-0.241l0.284-1.264c0.023-0.105,0.125-0.174,0.235-0.149
			c0.106,0.024,0.174,0.129,0.149,0.236l-0.284,1.264C328.925,107.242,328.844,107.304,328.753,107.304z"/>
	</g>
	<g>
		<path d="M332.2,107.215c-0.149-0.029-0.217-0.134-0.192-0.241l0.284-1.264c0.023-0.105,0.122-0.175,0.235-0.149
			c0.107,0.024,0.174,0.129,0.15,0.236l-0.284,1.264C332.372,107.153,332.291,107.215,332.2,107.215z"/>
	</g>
	<g>
		<path d="M328.718,103.626c0,0,0.541-1.121,1.899-1.192s2.194,0.849,2.194,0.849s-0.492,2.313,1.41,3.444
			c1.902,1.131,3.315,0.726,3.315,0.726l1.318-0.538l0.893-2.002l-4.064-3.999l-5.135-2.419l-2.45,2.436L328.718,103.626z"/>
	</g>
	<g>
		<path d="M331.231,111.933c-0.141-0.006-0.225-0.099-0.219-0.207c0.005-0.108,0.098-0.199,0.206-0.188
			c0.046,0.007,1.136,0.04,1.554-0.97c0.043-0.1,0.16-0.149,0.258-0.106c0.101,0.042,0.148,0.157,0.107,0.258
			C332.656,111.879,331.446,111.933,331.231,111.933z"/>
	</g>
	<g>
		<path style="fill:#40507F;" d="M318.779,130.857c0.861,0.717,1.778,1.368,2.741,1.952c0.42,0.256,0.845,0.502,1.281,0.733
			c0.123,0.067,0.246,0.128,0.374,0.19c3.233,1.64,6.897,2.562,10.771,2.562c1.322,0,2.618-0.108,3.884-0.318
			c0.907-0.143,1.794-0.343,2.665-0.589c2.885-0.82,5.544-2.167,7.871-3.93c0.559-0.425,1.097-0.876,1.619-1.348
			c0.876-0.789,1.696-1.65,2.444-2.562c0.256-0.313,0.507-0.635,0.743-0.963c-1.589-2.434-4.268-5.539-8.276-7.148
			c-1.112-0.441-2.306-0.769-3.607-0.938c-0.077-0.01-0.149-0.021-0.225-0.026c-0.118-0.015-0.236-0.026-0.348-0.036
			c-0.128-0.015-0.225-0.021-0.323-0.026c-0.154-0.01-0.302-0.02-0.435-0.026c-0.323-0.026-0.651-0.051-0.963-0.062
			c-8.896-0.343-13.63,3.187-13.907,3.397c-0.026,0.015-0.041,0.036-0.056,0.056c-0.087,0.097-0.302,0.328-0.615,0.692
			C323.252,123.812,320.777,126.891,318.779,130.857z"/>
	</g>
	<g>
		<path style="fill:#40507F;" d="M323.175,133.732c3.233,1.64,6.897,2.562,10.771,2.562c1.322,0,2.618-0.108,3.884-0.318
			c0.907-0.143,1.794-0.343,2.665-0.589c2.885-0.82,5.544-2.167,7.871-3.93c-0.999-6.082-2.055-11.119-2.875-11.678
			c-0.184-0.123-0.384-0.241-0.594-0.343c-1.097-0.538-2.465-0.805-3.607-0.938c-0.077-0.01-0.149-0.021-0.225-0.026
			c-0.118-0.015-0.236-0.026-0.348-0.036c-0.108-0.01-0.22-0.015-0.323-0.026c-0.154-0.01-0.302-0.02-0.435-0.026
			c-0.584-0.031-0.958-0.026-0.958-0.026c-0.031-0.374-0.261-3.018-0.979-2.962c-0.763,0.067-2.613,1.337-4.571,1.496
			c-1.957,0.159-3.008-0.015-3.397-0.015c-0.395,0-0.477,2.096-0.477,2.096s-2.624,0.892-4.489,2.747
			c-0.026,0.015-0.041,0.036-0.056,0.056c-0.087,0.097-0.302,0.328-0.615,0.692c-0.236,0.297-0.441,0.61-0.615,0.948
			C323.252,124.483,323.119,128.715,323.175,133.732z"/>
	</g>
	<g>
		<path style="fill:#F7B369;" d="M334.852,119.426c-0.324,0-0.632-0.027-0.907-0.091c-0.105-0.025-0.172-0.131-0.147-0.237
			c0.025-0.106,0.125-0.173,0.237-0.147c1.689,0.394,4.863-0.765,4.896-0.776c0.102-0.038,0.215,0.015,0.254,0.117
			c0.037,0.103-0.015,0.216-0.117,0.253C338.952,118.586,336.649,119.426,334.852,119.426z"/>
	</g>
</g>
<g>
	<path style="fill:#A37B90;" d="M298.491,98.905H206.88c-1.073,0-1.942-0.869-1.942-1.942c0-1.073,0.87-1.942,1.942-1.942h91.611
		c1.073,0,1.942,0.869,1.942,1.942C300.434,98.036,299.564,98.905,298.491,98.905z"/>
</g>
<g>
	<path style="fill:#A37B90;" d="M298.491,130.852H206.88c-1.073,0-1.942-0.87-1.942-1.942s0.87-1.942,1.942-1.942h91.611
		c1.073,0,1.942,0.87,1.942,1.942S299.564,130.852,298.491,130.852z"/>
</g>
<g>
	<path style="fill:#A37B90;" d="M287.946,114.879h-81.383c-1.012,0-1.833-0.821-1.833-1.833v-0.219c0-1.012,0.821-1.833,1.833-1.833
		h81.383c1.012,0,1.833,0.821,1.833,1.833v0.219C289.779,114.058,288.958,114.879,287.946,114.879z"/>
</g>
<g>
	<path style="fill:#FFFFFF;" d="M225.18,169.375h-15.227c-2.134,0-3.865-1.73-3.865-3.865v-15.227c0-2.134,1.73-3.865,3.865-3.865
		h15.227c2.134,0,3.865,1.73,3.865,3.865v15.227C229.045,167.644,227.315,169.375,225.18,169.375z"/>
</g>
<g>
	<path style="fill:#FFFFFF;" d="M225.18,208.297h-15.227c-2.134,0-3.865-1.73-3.865-3.865v-15.227c0-2.134,1.73-3.865,3.865-3.865
		h15.227c2.134,0,3.865,1.73,3.865,3.865v15.227C229.045,206.567,227.315,208.297,225.18,208.297z"/>
</g>
<g>
	<path style="fill:#FFFFFF;" d="M225.18,247.22h-15.227c-2.134,0-3.865-1.73-3.865-3.865v-15.227c0-2.135,1.73-3.865,3.865-3.865
		h15.227c2.134,0,3.865,1.73,3.865,3.865v15.227C229.045,245.49,227.315,247.22,225.18,247.22z"/>
</g>
<g>
	<path style="fill:#FFFFFF;" d="M225.18,286.143h-15.227c-2.134,0-3.865-1.73-3.865-3.865v-15.227c0-2.134,1.73-3.865,3.865-3.865
		h15.227c2.134,0,3.865,1.73,3.865,3.865v15.227C229.045,284.412,227.315,286.143,225.18,286.143z"/>
</g>
<g>
	<path style="fill:#68B6D8;" d="M216.582,165.615c-0.496,0-0.966-0.226-1.276-0.616l-7.223-9.091c-0.56-0.705-0.442-1.73,0.262-2.29
		c0.706-0.559,1.73-0.441,2.29,0.262l5.867,7.385l7.939-11.295c0.517-0.736,1.533-0.913,2.27-0.396
		c0.736,0.518,0.914,1.534,0.396,2.27l-9.192,13.078c-0.295,0.42-0.771,0.677-1.285,0.692
		C216.614,165.615,216.598,165.615,216.582,165.615z"/>
</g>
<g>
	<path style="fill:#68B6D8;" d="M216.582,204.689c-0.496,0-0.966-0.227-1.276-0.616l-7.223-9.091c-0.56-0.705-0.442-1.73,0.262-2.29
		c0.706-0.559,1.73-0.442,2.29,0.262l5.867,7.385l7.939-11.295c0.517-0.736,1.533-0.912,2.27-0.396
		c0.736,0.517,0.914,1.534,0.396,2.27l-9.192,13.078c-0.295,0.421-0.771,0.677-1.285,0.692
		C216.614,204.688,216.598,204.689,216.582,204.689z"/>
</g>
<g>
	<path style="fill:#D3BCBC;" d="M320.554,151.271h-80.351c-0.559,0-1.012-0.453-1.012-1.012v-0.384c0-0.559,0.453-1.012,1.012-1.012
		h80.351c0.559,0,1.012,0.453,1.012,1.012v0.384C321.566,150.818,321.113,151.271,320.554,151.271z"/>
</g>
<g>
	<path style="fill:#D3BCBC;" d="M334.682,159.1h-94.395c-0.605,0-1.096-0.491-1.096-1.096v-0.216c0-0.605,0.491-1.096,1.096-1.096
		h94.395c0.605,0,1.096,0.491,1.096,1.096v0.216C335.778,158.61,335.287,159.1,334.682,159.1z"/>
</g>
<g>
	<path style="fill:#D3BCBC;" d="M354.58,166.93H240.395c-0.665,0-1.204-0.539-1.204-1.204s0.539-1.204,1.204-1.204H354.58
		c0.665,0,1.204,0.539,1.204,1.204S355.244,166.93,354.58,166.93z"/>
</g>
<g>
	<path style="fill:#D3BCBC;" d="M320.554,268.039h-80.351c-0.559,0-1.012-0.453-1.012-1.012v-0.384c0-0.559,0.453-1.012,1.012-1.012
		h80.351c0.559,0,1.012,0.453,1.012,1.012v0.384C321.566,267.586,321.113,268.039,320.554,268.039z"/>
</g>
<g>
	<path style="fill:#D3BCBC;" d="M334.682,275.868h-94.395c-0.605,0-1.096-0.491-1.096-1.096v-0.216c0-0.605,0.491-1.096,1.096-1.096
		h94.395c0.605,0,1.096,0.491,1.096,1.096v0.216C335.778,275.378,335.287,275.868,334.682,275.868z"/>
</g>
<g>
	<path style="fill:#D3BCBC;" d="M354.58,283.698H240.395c-0.665,0-1.204-0.539-1.204-1.204c0-0.665,0.539-1.204,1.204-1.204H354.58
		c0.665,0,1.204,0.539,1.204,1.204C355.784,283.159,355.244,283.698,354.58,283.698z"/>
</g>
<g>
	<path style="fill:#D3BCBC;" d="M320.554,190.193h-80.351c-0.559,0-1.012-0.453-1.012-1.012v-0.384c0-0.559,0.453-1.012,1.012-1.012
		h80.351c0.559,0,1.012,0.453,1.012,1.012v0.384C321.566,189.74,321.113,190.193,320.554,190.193z"/>
</g>
<g>
	<path style="fill:#D3BCBC;" d="M334.682,198.023h-94.395c-0.605,0-1.096-0.491-1.096-1.096v-0.216c0-0.605,0.491-1.096,1.096-1.096
		h94.395c0.605,0,1.096,0.491,1.096,1.096v0.216C335.778,197.533,335.287,198.023,334.682,198.023z"/>
</g>
<g>
	<path style="fill:#D3BCBC;" d="M321.364,205.853h-81.156c-0.562,0-1.017-0.455-1.017-1.017v-0.374c0-0.562,0.455-1.017,1.017-1.017
		h81.156c0.562,0,1.017,0.455,1.017,1.017v0.374C322.381,205.398,321.926,205.853,321.364,205.853z"/>
</g>
<g>
	<path style="fill:#D3BCBC;" d="M344.975,229.116H240.344c-0.637,0-1.153-0.516-1.153-1.153v-0.102c0-0.637,0.516-1.153,1.153-1.153
		h104.631c0.637,0,1.153,0.516,1.153,1.153v0.102C346.128,228.6,345.612,229.116,344.975,229.116z"/>
</g>
<g>
	<path style="fill:#D3BCBC;" d="M325.413,236.946h-85.18c-0.575,0-1.042-0.466-1.042-1.042v-0.325c0-0.575,0.466-1.042,1.042-1.042
		h85.18c0.575,0,1.042,0.466,1.042,1.042v0.325C326.454,236.479,325.988,236.946,325.413,236.946z"/>
</g>
<g>
	<path style="fill:#D3BCBC;" d="M339.093,244.775h-98.781c-0.619,0-1.121-0.502-1.121-1.121v-0.167c0-0.619,0.502-1.121,1.121-1.121
		h98.781c0.619,0,1.121,0.502,1.121,1.121v0.167C340.214,244.274,339.712,244.775,339.093,244.775z"/>
</g>
<g>
	<g>
		<polygon style="fill:#F29E4C;" points="352.243,349.498 355.646,349.498 361.027,337.547 349.44,343.522 		"/>
	</g>
	<g>
		<path style="fill:#F29E4C;" d="M406.945,240.33c-0.075-0.926-0.922-1.634-1.995-1.759c-2.984-0.347-5.66-0.447-7.686-2.191
			c-2.44-2.085-3.943-4.966-3.943-8.157v-3.99c0-0.798-0.755-1.446-1.686-1.446h-72.25c-0.931,0-1.686,0.647-1.686,1.446v3.99
			c0,5.844-5.068,10.671-11.63,11.434c-1.084,0.126-1.872,0.946-1.893,1.884c-0.032,1.376-0.041,3.512,0.069,6.276
			c0.742,18.639,6.94,65.832,48.509,100.547c0.909,0.765,2.973,2.111,5.881,0.011c0.027,0.005,0.05,0.003,0.067-0.011
			c37.273-31.133,46.106-72.286,48.073-93.902C407.331,248.289,407.13,242.626,406.945,240.33z"/>
	</g>
	<g>
		<path style="fill:#FFB164;" d="M403.543,241.416c-0.075-0.926-0.922-1.634-1.995-1.759c-2.984-0.347-5.66-1.533-7.686-3.277
			c-2.44-2.085-3.944-4.966-3.944-8.157v-3.99c0-0.798-0.755-1.446-1.686-1.446h-72.25c-0.931,0-1.686,0.647-1.686,1.446v3.99
			c0,5.844-5.068,10.671-11.63,11.434c-1.084,0.126-1.872,0.946-1.894,1.884c-0.032,1.376-0.041,3.512,0.069,6.276
			c0.742,18.639,6.94,65.832,48.509,100.547c0.909,0.765,2.973,2.111,5.881,0.011c0.027,0.005,0.05,0.003,0.067-0.011
			c37.273-31.133,46.106-72.286,48.073-93.902C403.928,248.289,403.727,243.712,403.543,241.416z"/>
	</g>
	<g>
		<path style="fill:#EAD8D8;" d="M393.865,249.854c-0.06-0.751-0.748-1.326-1.618-1.427c-2.421-0.281-4.593-1.244-6.236-2.659
			c-1.98-1.692-3.2-4.029-3.2-6.618v-3.237c0-0.648-0.612-1.173-1.368-1.173h-58.621c-0.755,0-1.368,0.525-1.368,1.173v3.237
			c0,4.741-4.112,8.658-9.436,9.277c-0.879,0.102-1.519,0.767-1.536,1.528c-0.026,1.116-0.033,2.849,0.056,5.092
			c0.602,15.123,5.631,53.413,39.358,81.58c0.738,0.621,2.412,1.713,4.772,0.009c0.022,0.004,0.041,0.003,0.054-0.009
			c30.242-25.26,37.408-58.65,39.004-76.188C394.178,255.43,394.015,251.716,393.865,249.854z"/>
	</g>
	<g>
		<path style="fill:#A37B90;" d="M371.943,257.004c-5.569-2.491-13.428,1.701-19.699,9.758c-6.271-8.057-14.13-12.249-19.699-9.758
			c-7.233,3.236-7.86,16.513-1.401,29.656c4.545,9.246,11.385,15.956,17.561,17.999c1.103,0.466,2.292,0.679,3.539,0.652
			c1.248,0.027,2.436-0.186,3.539-0.652c6.176-2.043,13.016-8.752,17.56-17.999C379.803,273.517,379.176,260.24,371.943,257.004z"/>
	</g>
	<g>
		<path style="fill:#FFFFFF;" d="M348.188,297.711c-0.259,0-0.482-0.183-0.533-0.438l-5.101-25.724l-3.98,14.734
			c-0.064,0.237-0.279,0.401-0.524,0.401h-11.369c-0.3,0-0.543-0.243-0.543-0.543s0.243-0.543,0.543-0.543h10.953l4.478-16.574
			c0.065-0.243,0.281-0.413,0.543-0.401c0.252,0.009,0.465,0.19,0.515,0.438l4.961,25.019l2.901-18.239
			c0.038-0.24,0.23-0.426,0.472-0.454c0.243-0.029,0.473,0.107,0.565,0.33l4.113,9.883h23.388c0.3,0,0.543,0.243,0.543,0.543
			s-0.243,0.543-0.543,0.543h-23.75c-0.22,0-0.417-0.132-0.501-0.334l-3.516-8.447l-3.078,19.349
			c-0.041,0.26-0.263,0.453-0.525,0.458C348.195,297.711,348.191,297.711,348.188,297.711z"/>
	</g>
</g>
<g>
	<g>
		<path style="fill:#50608E;" d="M426.913,329.768l3.533,10.177c0,0-4.875,2.346-5.383,4.91c-0.518,2.618,2.286,4.347,2.286,4.347
			l-8.743,10.74l27.157-3.368l-2.493-26.805H426.913z"/>
	</g>
	<g>
		<path d="M452.056,131.425c0,0,9.42,1.182,12.846,10.227c3.426,9.045,1.4,20.749,1.4,20.749l-17.387-3.996l0.755-16.064
			L452.056,131.425z"/>
	</g>
	<g>
		<path d="M444.022,148.508c0,0,5.369,0.239,8.462-7.255c3.093-7.494-0.777-13.358-0.777-13.358l-6.741,3.53l-3.663,13.387
			L444.022,148.508z"/>
	</g>
	<g>
		<polygon style="fill:#F48462;" points="462.02,339.924 462.02,356.573 438.563,354.782 438.563,338.872 		"/>
	</g>
	<g>
		<path style="fill:#A37B90;" d="M422.272,204.365c0,0-24.816,49.272-25.006,65.504c-0.19,16.232,33.18,70.077,33.18,70.077
			s9.069,3.73,22.391,3.3c13.322-0.43,15.415-1.957,15.415-1.957s-2.284-115.494-7.612-126.302
			C455.311,204.178,422.272,204.365,422.272,204.365z"/>
	</g>
	<g>
		<path style="fill:#FFB164;" d="M441.418,151.81c0,0,11.799-0.396,17.889,5.123c6.09,5.519,2.094,53.668,2.094,53.668
			s-15.888,1.332-27.26,0c-11.373-1.332-16.512-3.14-16.512-3.14s-1.332-44.26,1.713-49.583
			C422.387,152.556,441.418,151.81,441.418,151.81z"/>
	</g>
	<g>
		<g>
			<path style="fill:#F48462;" d="M443.831,145.269l0.748,8.824c0,0-1.376,2.672-6.503,3.529c-3.819,0.639-5.244-0.116-5.244-0.116
				l0.157-4.515l0.159-4.403l9.148-2.84L443.831,145.269z"/>
		</g>
	</g>
	<g>
		<g>
			<path d="M442.296,145.747c-0.002,0.243-0.069,0.535-0.184,0.873c-1.601,4.575-6.918,5.983-9.123,6.37l0.159-4.403
				L442.296,145.747z"/>
		</g>
	</g>
	<g>
		<g>
			<path style="fill:#F48462;" d="M429.477,128.641c0,0-3.694,11.456-1.347,17.449c2.347,5.992,7.867,4.458,11.108,2.929
				c3.241-1.529,4.595-3.747,4.595-3.747s3.246,0.749,5.053-2.381c1.807-3.13,0.177-6.353-1.693-6.942
				c-1.87-0.588-3.872,0.92-3.872,0.92l1.351-3.357C444.672,133.511,436.016,118.008,429.477,128.641z"/>
		</g>
	</g>
	<g>
		<path d="M444.021,141.575c-0.091,0-0.181-0.038-0.244-0.112c-0.115-0.135-0.1-0.337,0.035-0.453l3.733-3.196
			c0.136-0.115,0.339-0.099,0.453,0.035c0.115,0.135,0.1,0.337-0.035,0.453l-3.733,3.196
			C444.17,141.549,444.096,141.575,444.021,141.575z"/>
	</g>
	<g>
		<path d="M447.641,141.218c-0.018,0-0.035-0.002-0.054-0.004l-2.675-0.452c-0.175-0.03-0.293-0.195-0.263-0.371
			c0.029-0.175,0.186-0.294,0.37-0.263l2.675,0.452c0.175,0.03,0.293,0.195,0.263,0.371
			C447.931,141.107,447.795,141.218,447.641,141.218z"/>
	</g>
	<g>
		<path d="M437.232,132.639c-0.087,0-0.174-0.035-0.237-0.105c-1.264-1.38-2.622-0.533-2.68-0.497
			c-0.149,0.094-0.348,0.052-0.443-0.095c-0.097-0.148-0.056-0.346,0.093-0.443c0.636-0.418,2.191-0.833,3.505,0.601
			c0.119,0.131,0.11,0.334-0.021,0.454C437.388,132.611,437.31,132.639,437.232,132.639z"/>
	</g>
	<g>
		<path d="M428.639,132.949c-0.083,0-0.167-0.032-0.23-0.097c-0.124-0.127-0.122-0.33,0.005-0.454
			c1.172-1.146,2.056-0.864,2.151-0.828c0.166,0.062,0.251,0.247,0.188,0.413c-0.06,0.164-0.241,0.249-0.406,0.191
			c-0.035-0.01-0.612-0.169-1.484,0.683C428.801,132.919,428.72,132.949,428.639,132.949z"/>
	</g>
	<g>
		<path style="fill:#F4E6E6;" d="M444.371,151.639c0,0-8.23,121.044-7.553,122.421c0.677,1.377,16.245,3.787,21.74,2.754
			c5.495-1.033,8.527-2.754,9.41-3.787c0.884-1.033-0.573-80.185-0.573-80.185l0.857-32.511
			C468.252,160.331,456.369,151.596,444.371,151.639z"/>
	</g>
	<g>
		<path style="fill:#92B4EA;" d="M456.626,181.498h-10.433c-0.892,0-1.615-0.723-1.615-1.615v-1.798
			c0-0.892,0.723-1.615,1.615-1.615h10.433c0.892,0,1.615,0.723,1.615,1.615v1.798C458.241,180.775,457.518,181.498,456.626,181.498
			z"/>
	</g>
	<g>
		<path d="M430.654,141.973c-0.146,0-0.277-0.1-0.313-0.247c-0.889-3.749,1.296-5.558,1.39-5.633
			c0.139-0.111,0.339-0.089,0.45,0.049c0.111,0.137,0.09,0.339-0.047,0.451c-0.08,0.065-1.96,1.646-1.168,4.984
			c0.041,0.173-0.065,0.346-0.238,0.387C430.703,141.97,430.679,141.973,430.654,141.973z"/>
	</g>
	<g>
		<path d="M429.037,137.186c-0.018,0-0.038-0.002-0.058-0.005c-0.175-0.032-0.29-0.2-0.258-0.374l0.354-1.926l-0.584-0.73
			c-0.11-0.139-0.088-0.341,0.051-0.452c0.136-0.111,0.34-0.088,0.451,0.05l0.676,0.845c0.058,0.073,0.082,0.167,0.065,0.259
			l-0.381,2.07C429.324,137.077,429.189,137.186,429.037,137.186z"/>
	</g>
	<g>
		<path d="M434.238,144.727c-0.566,0-1.019-0.195-1.048-0.208c-0.106-0.047-0.18-0.148-0.189-0.265
			c-0.011-0.116,0.042-0.229,0.139-0.295l2.767-1.884c0.105-0.071,0.242-0.074,0.35-0.007c0.108,0.067,0.166,0.191,0.149,0.316
			c-0.142,1.037-0.535,1.742-1.17,2.097C434.903,144.667,434.554,144.727,434.238,144.727z M434.104,144.079
			c0.264,0.02,0.556-0.011,0.821-0.161c0.287-0.162,0.507-0.445,0.657-0.846L434.104,144.079z"/>
	</g>
	<g>
		<path style="fill:#7772D3;" d="M422.127,155.539c0,0-5.718,3.247-11.464,5.149c-5.364,1.775-9.404,1.922-9.404,1.922
			s-0.016,6.884,0.209,14.062c0.233,7.401-0.753,12.615-0.753,12.615s17.862,3.839,22.002-1.86
			C426.856,181.729,422.127,155.539,422.127,155.539z"/>
	</g>
	<g>
		<path style="fill:#F48462;" d="M387.548,145.712c0,0-3.305-9.216-6.033-9.418c-2.727-0.201,0.495,7.279,0.495,7.279l-7.385-2.824
			c0,0-8.404-2.343-10.076-1.612c-1.671,0.731,1.081,3.457,1.081,3.457s-5.984-1.796-5.145,1.121
			c0.839,2.918,4.934,4.596,4.934,4.596s-5.85-2.073-4.529,1.345c0.714,1.848,13.578,9.637,22.246,9.359
			c8.669-0.278,6.321-6.067,6.321-6.067L387.548,145.712z"/>
	</g>
	<g>
		<path d="M368.644,150.163c-0.091,0-0.181-0.038-0.244-0.113c-0.115-0.135-0.1-0.337,0.035-0.453l7.442-6.358
			c0.135-0.115,0.338-0.1,0.453,0.036c0.115,0.135,0.1,0.337-0.035,0.453l-7.442,6.358
			C368.792,150.137,368.718,150.163,368.644,150.163z"/>
	</g>
	<g>
		<path d="M384.287,153.787c-0.131-0.01-2.63-0.231-3.792-2.279c-0.966-1.703-0.692-4.108,0.811-7.149
			c0.079-0.159,0.271-0.224,0.431-0.146c0.159,0.079,0.224,0.271,0.145,0.431c-1.404,2.838-1.683,5.041-0.829,6.547
			c0.996,1.755,3.236,1.953,3.259,1.955c0.177,0.014,0.309,0.169,0.295,0.346C384.594,153.66,384.453,153.787,384.287,153.787z"/>
	</g>
	<g>
		<path style="fill:#F7B369;" d="M430.445,339.948c-0.169,0-0.31-0.132-0.32-0.303c-2.133-36.61-1.458-95.408-1.411-99.174
			l-11.541-6.835c-0.152-0.091-0.203-0.287-0.112-0.44c0.09-0.151,0.288-0.201,0.441-0.112l11.7,6.93
			c0.099,0.059,0.158,0.166,0.157,0.28c-0.008,0.613-0.784,61.693,1.407,99.314c0.011,0.177-0.125,0.329-0.302,0.339
			C430.458,339.948,430.451,339.948,430.445,339.948z"/>
	</g>
	<g>
		<path style="fill:#F7B369;" d="M428.93,280.196c-0.034,0-0.067-0.006-0.102-0.017c-1.186-0.394-11.603-3.932-12.261-7.009
			c-0.083-0.389-0.055-0.97,0.553-1.526c0.513-0.469,1.15-0.668,1.903-0.602c3.923,0.366,9.91,8.302,10.163,8.64
			c0.084,0.112,0.086,0.267,0.004,0.38C429.129,280.148,429.031,280.196,428.93,280.196z M418.737,271.672
			c-0.468,0-0.856,0.147-1.184,0.446c-0.316,0.29-0.43,0.582-0.358,0.919c0.445,2.081,7.207,4.893,10.809,6.179
			c-1.674-2.079-6.119-7.261-9.041-7.533C418.886,271.675,418.81,271.672,418.737,271.672z"/>
	</g>
	<g>
		<g>
			<path style="fill:#5C69A5;" d="M459.956,373.562c1.632-0.062,2.93-1.475,2.953-3.22c0.089-6.891,1.132-22.329-0.125-22.344
				c-1.604-0.02-17.761,4.17-17.761,4.17s-0.338-9.555-7.004-7.924c-5.115,1.251-11.099,7.249-13.607,9.973
				c-0.796,0.865-1.8,1.461-2.908,1.723c-4.764,1.127-17.879,4.859-18.155,11.867c-0.337,8.566,3.112,7.63,4.716,7.651
				C409.44,375.474,448.829,373.984,459.956,373.562z"/>
		</g>
	</g>
	<g>
		<path style="fill:#FFFFFF;" d="M437.21,355.101c-0.131,0-0.254-0.081-0.302-0.211c-0.061-0.166,0.024-0.35,0.191-0.412
			l7.677-2.812c0.163-0.059,0.351,0.024,0.412,0.191c0.061,0.166-0.024,0.351-0.191,0.412l-7.677,2.812
			C437.284,355.094,437.247,355.101,437.21,355.101z"/>
	</g>
	<g>
		<path d="M434.631,137.234c-0.019,0-0.038-0.002-0.058-0.005c-0.175-0.032-0.29-0.2-0.258-0.374l0.352-1.913l-0.762-0.824
			c-0.121-0.13-0.113-0.333,0.018-0.454c0.128-0.121,0.333-0.113,0.453,0.018l0.871,0.942c0.069,0.075,0.099,0.177,0.08,0.276
			l-0.381,2.071C434.918,137.126,434.783,137.234,434.631,137.234z"/>
	</g>
	<g>
		<path d="M443.322,136.868l-1.025,1.189l0.513-1.714c0,0-2.415-0.016-5.577-2.014c-3.161-1.998-3.912-6.851-3.912-6.851
			s-1.37,0.642-2.868,1.808s-1.815,2.415-1.815,2.415s-3.962-10.979,4.351-12.406c8.313-1.427,14.213,5.62,14.213,5.62
			s4.758,0.661,5.234,5.323c0.476,4.663-2.782,8.279-2.782,8.279S447.529,134.649,443.322,136.868z"/>
	</g>
	<g>
		<path style="fill:#F4E6E6;" d="M393.053,149.369l-20.493,11.062c0,0,7.38,21.312,20.974,26.71
			c13.179,5.234,20.098,4.071,20.098,4.071l-12.175,62.16c0,0,18.23-42.864,18.628-45.21c0.398-2.346,12.918-55.543,12.918-55.543
			s-2.952-0.423-9.447,2.074c-6.494,2.498-13.484,4.169-19.479,4.169S393.053,149.369,393.053,149.369z"/>
	</g>
	<g>
		<path style="fill:#F48462;" d="M432.832,157.505l-0.498,3.968c0,0,10.957-4.588,11.687-6.648
			c0.731-2.059-10.701,1.152-10.701,1.152L432.832,157.505z"/>
	</g>
	<g>
		<path style="fill:#FFFFFF;" d="M432.334,161.794c-0.066,0-0.132-0.021-0.187-0.06c-0.09-0.064-0.141-0.17-0.134-0.28l0.425-7.137
			c0.011-0.176,0.146-0.29,0.34-0.302c0.177,0.011,0.311,0.163,0.301,0.34l-0.394,6.622c1.989-0.846,9.625-4.194,11.07-6.331
			c0.1-0.148,0.301-0.185,0.445-0.086c0.147,0.1,0.185,0.299,0.086,0.446c-1.763,2.609-11.421,6.596-11.831,6.765
			C432.417,161.786,432.375,161.794,432.334,161.794z"/>
	</g>
	<g>
		<path style="fill:#5C69A5;" d="M456.293,270.396c-4.044,0-11.375-0.665-11.969-1.439c-0.543-0.707,0.135-18.065,0.45-25.496
			c0.008-0.172,0.149-0.308,0.321-0.308h17.661c0.178,0,0.321,0.144,0.321,0.321v25.287c0,0.105-0.051,0.202-0.136,0.262
			c-0.059,0.042-1.488,1.03-5.01,1.319C457.496,270.379,456.935,270.396,456.293,270.396z M445.403,243.796
			c-0.405,9.595-0.877,23.902-0.543,24.815c0.637,0.514,9.463,1.387,13.02,1.092c2.733-0.224,4.138-0.889,4.556-1.121v-24.785
			H445.403z"/>
	</g>
	<g>
		<path style="fill:#40507F;" d="M424.289,219.374l-26.076,0.065c-0.948,0.002-1.917-0.803-2.164-1.8l-9.983-40.273
			c-0.247-0.996,0.322-1.806,1.27-1.808l26.077-0.065c0.948-0.002,1.917,0.803,2.164,1.8l9.983,40.273
			C425.805,218.563,425.237,219.372,424.289,219.374z"/>
	</g>
	<g>
		<path style="fill:#5C69A5;" d="M421.244,219.374l-26.077,0.065c-0.948,0.002-1.917-0.803-2.164-1.8l-9.983-40.273
			c-0.247-0.996,0.322-1.806,1.27-1.808l26.077-0.065c0.948-0.002,1.917,0.803,2.164,1.8l9.983,40.273
			C422.76,218.563,422.192,219.372,421.244,219.374z"/>
	</g>
	<g>
		<path style="fill:#5C69A5;" d="M404.203,168.37c-0.051,0-0.104-0.003-0.157-0.008c-0.485-0.047-0.87-0.283-1.141-0.7
			c-1.36-2.094,0.775-8.569,0.867-8.844c0.044-0.131,0.167-0.22,0.305-0.22c0.143,0.001,0.265,0.092,0.307,0.225
			c0.233,0.745,2.238,7.327,0.815,9.079C404.95,168.21,404.608,168.37,404.203,168.37z M404.069,160.038
			c-0.636,2.21-1.465,5.983-0.626,7.274c0.164,0.252,0.375,0.382,0.665,0.41c0.257,0.026,0.447-0.046,0.592-0.224
			C405.575,166.42,404.715,162.388,404.069,160.038z"/>
	</g>
	<g>
		<path style="fill:#F48462;" d="M433.602,190.989c0,0-8.022-2.729-9.553-2.634c-1.531,0.095-5.401,1.316-5.401,1.316l0.543,2.191
			c0,0-13.483,1.477-13.477,4.136c0.004,1.811,5.851,1.501,5.851,1.501s-6.044,0.815-5.853,2.874
			c0.191,2.059,7.654,1.848,7.654,1.848s-6.176,1.241-3.86,3.042c2.316,1.801,22.078,3.86,25.065-1.029
			C437.557,199.345,433.602,190.989,433.602,190.989z"/>
	</g>
	<g>
		<path style="fill:#F4E6E6;" d="M468.252,160.331c0,0,22.53,21.409,17.783,39.752c-6.28,24.265-54.843,10.145-54.843,10.145
			l1.64-22.62l29.178-1.599L468.252,160.331z"/>
	</g>
	<g>
		<path style="fill:#5C69A5;" d="M466.728,186.835c-3.061,0-6.586-0.37-6.81-0.394c-0.142-0.015-0.257-0.122-0.282-0.263
			c-0.024-0.141,0.046-0.281,0.174-0.344c4.338-2.148,9.729-1.659,11.098-0.686c0.336,0.239,0.382,0.485,0.361,0.65
			c-0.032,0.262-0.247,0.472-0.638,0.622C469.827,186.731,468.343,186.835,466.728,186.835z M461.219,185.917
			c2.38,0.204,7.514,0.55,9.181-0.095c0.107-0.042,0.17-0.078,0.204-0.103C470.106,185.181,465.635,184.223,461.219,185.917z"/>
	</g>
	<g>
		<path d="M418.823,191.864c-0.152,0-0.287-0.108-0.315-0.263c-0.033-0.174,0.082-0.342,0.257-0.375l3.546-0.661
			c0.174-0.028,0.342,0.083,0.374,0.257c0.033,0.174-0.082,0.342-0.257,0.375l-3.546,0.661
			C418.862,191.862,418.843,191.864,418.823,191.864z"/>
	</g>
	<g>
		<path d="M410.567,197.788c-0.16,0-0.299-0.12-0.318-0.283c-0.022-0.176,0.103-0.336,0.279-0.357l9.04-1.095
			c0.188-0.018,0.337,0.104,0.357,0.28c0.022,0.176-0.103,0.336-0.279,0.357l-9.04,1.095
			C410.593,197.787,410.58,197.788,410.567,197.788z"/>
	</g>
	<g>
		<path d="M412.255,202.776c-0.16,0-0.298-0.119-0.318-0.281c-0.022-0.176,0.103-0.336,0.278-0.358l9.197-1.165
			c0.187-0.018,0.336,0.104,0.358,0.279c0.023,0.176-0.102,0.336-0.278,0.358l-9.197,1.164
			C412.281,202.775,412.268,202.776,412.255,202.776z"/>
	</g>
	<g>
		<path style="fill:#FFFFFF;" d="M402.341,181.82h-6.342c-1.654,0-3.093-1.12-3.499-2.724l-0.892-3.524
			c-0.043-0.172,0.06-0.347,0.232-0.39c0.176-0.044,0.347,0.062,0.391,0.233l0.892,3.524c0.333,1.318,1.516,2.239,2.876,2.239h6.342
			c0.746,0,1.441-0.333,1.909-0.913c0.468-0.581,0.645-1.331,0.486-2.06l-0.57-2.616c-0.038-0.173,0.071-0.344,0.245-0.382
			c0.18-0.035,0.345,0.073,0.382,0.246l0.57,2.616c0.201,0.919-0.022,1.866-0.613,2.599
			C404.16,181.399,403.282,181.82,402.341,181.82z"/>
	</g>
	<g>
		<path style="fill:#40507F;" d="M447.746,162.905c-0.032,0-0.065-0.004-0.099-0.012c-0.23-0.054-0.372-0.285-0.318-0.515
			c0.899-3.802,0.751-6.796-0.428-8.66c-0.915-1.444-2.114-1.714-2.165-1.725c-0.23-0.049-0.379-0.275-0.331-0.506
			c0.048-0.23,0.268-0.385,0.502-0.334c0.064,0.013,1.58,0.334,2.697,2.076c1.343,2.091,1.53,5.236,0.559,9.346
			C448.116,162.772,447.94,162.905,447.746,162.905z"/>
	</g>
	<g>
		<path style="fill:#40507F;" d="M426.913,172.726c-0.234,0-0.426-0.189-0.428-0.424c-0.007-0.667-0.094-16.367,5.803-20.657
			c0.189-0.139,0.458-0.098,0.599,0.094c0.139,0.191,0.097,0.459-0.095,0.598c-5.541,4.031-5.452,19.797-5.451,19.956
			c0.003,0.237-0.188,0.43-0.424,0.433C426.916,172.726,426.914,172.726,426.913,172.726z"/>
	</g>
	<g>
		<path style="fill:#40507F;" d="M446.92,177.013c-0.058,0-0.116-0.012-0.172-0.036c-0.217-0.095-0.315-0.347-0.221-0.564
			c0.043-0.096,4.188-9.682,1.124-12.997c-0.382-0.413-0.83-0.594-1.385-0.543c-2.789,0.244-7.129,6.1-8.566,8.336
			c-0.13,0.2-0.397,0.255-0.592,0.129c-0.199-0.128-0.257-0.393-0.129-0.592c0.221-0.343,5.436-8.395,9.212-8.727
			c0.815-0.07,1.523,0.202,2.089,0.816c3.441,3.725-0.786,13.507-0.968,13.922C447.242,176.917,447.085,177.013,446.92,177.013z"/>
	</g>
	<g>
		<path style="fill:#40507F;" d="M429.47,173.132c0,1.412-1.144,2.556-2.556,2.556c-1.412,0-2.556-1.144-2.556-2.556
			c0-1.412,1.144-2.556,2.556-2.556C428.325,170.576,429.47,171.72,429.47,173.132z"/>
	</g>
	<g>
		<path style="fill:#A37B90;" d="M427.908,173.132c0,0.549-0.445,0.995-0.995,0.995c-0.549,0-0.995-0.446-0.995-0.995
			s0.446-0.995,0.995-0.995C427.463,172.137,427.908,172.582,427.908,173.132z"/>
	</g>
	<g>
		<path style="fill:#40507F;" d="M439.253,171.837h-3.306c-0.236,0-0.428-0.192-0.428-0.428s0.191-0.428,0.428-0.428h3.306
			c0.236,0,0.428,0.192,0.428,0.428S439.489,171.837,439.253,171.837z"/>
	</g>
	<g>
		<path style="fill:#40507F;" d="M447.407,178.422c-0.143,0-0.284-0.073-0.365-0.204l-1.729-2.818
			c-0.123-0.202-0.06-0.465,0.142-0.589c0.197-0.122,0.464-0.061,0.589,0.141l1.729,2.818c0.123,0.202,0.061,0.465-0.142,0.589
			C447.561,178.402,447.484,178.422,447.407,178.422z"/>
	</g>
</g>
<g>
	<g>
		<path style="fill:#D3BCBC;" d="M494.343,113.734h-41.274c-1.534,0-2.777-1.243-2.777-2.777V87.844
			c0-1.534,1.243-2.777,2.777-2.777h41.274c1.534,0,2.777,1.243,2.777,2.777v23.113C497.119,112.49,495.876,113.734,494.343,113.734
			z"/>
	</g>
	<g>
		<polygon style="fill:#D3BCBC;" points="459.713,109.11 452.061,123.432 470.236,111.395 		"/>
	</g>
	<g>
		<g>
			<g>
				
					<ellipse transform="matrix(0.9735 -0.2288 0.2288 0.9735 -9.7951 112.2856)" style="fill:#EAD8D8;" cx="479.25" cy="98.377" rx="9.236" ry="9.236"/>
			</g>
			<g>
				<path style="fill:#D3BCBC;" d="M483.376,107.059c-0.16,0-0.315-0.091-0.388-0.246l-7.879-16.688
					c-0.102-0.214-0.01-0.469,0.204-0.57c0.212-0.1,0.47-0.009,0.57,0.205l7.88,16.688c0.101,0.214,0.009,0.469-0.205,0.57
					C483.5,107.046,483.438,107.059,483.376,107.059z"/>
			</g>
		</g>
		<g>
			<g>
				<path style="fill:#FFFFFF;" d="M464.281,96.238c-3.298,2.46-3.978,7.127-1.518,10.425c2.46,3.298,7.127,3.978,10.425,1.518
					c3.298-2.46,3.978-7.127,1.518-10.425C472.247,94.458,467.579,93.778,464.281,96.238z"/>
			</g>
			<g>
				<path style="fill:#EAD8D8;" d="M465.388,109.202c-0.055,0-0.11-0.013-0.162-0.041c-0.169-0.089-0.232-0.298-0.143-0.467
					l6.99-13.143c0.089-0.169,0.298-0.233,0.467-0.143c0.169,0.089,0.232,0.298,0.143,0.467l-6.99,13.142
					C465.631,109.136,465.511,109.202,465.388,109.202z"/>
			</g>
		</g>
	</g>
</g>
</svg>
